<svg width="80" height="80" viewBox="0 0 80 80" fill="none" xmlns="http://www.w3.org/2000/svg">
<path fill-rule="evenodd" clip-rule="evenodd" d="M59.27 20.73C59.5028 20.9622 59.6875 21.2381 59.8135 21.5418C59.9396 21.8455 60.0045 22.1711 60.0045 22.5C60.0045 22.8288 59.9396 23.1544 59.8135 23.4581C59.6875 23.7618 59.5028 24.0377 59.27 24.27L24.27 59.27C23.8006 59.7394 23.1639 60.0031 22.5 60.0031C21.8361 60.0031 21.1994 59.7394 20.73 59.27C20.2606 58.8005 19.9968 58.1638 19.9968 57.5C19.9968 56.8361 20.2606 56.1994 20.73 55.73L55.73 20.73C55.9622 20.4971 56.2381 20.3124 56.5418 20.1864C56.8455 20.0604 57.1711 19.9955 57.5 19.9955C57.8288 19.9955 58.1544 20.0604 58.4581 20.1864C58.7619 20.3124 59.0378 20.4971 59.27 20.73V20.73Z" fill="black"/>
<path fill-rule="evenodd" clip-rule="evenodd" d="M20.7301 20.73C20.4973 20.9622 20.3125 21.2381 20.1865 21.5418C20.0605 21.8455 19.9956 22.1711 19.9956 22.5C19.9956 22.8288 20.0605 23.1544 20.1865 23.4581C20.3125 23.7618 20.4973 24.0377 20.7301 24.27L55.7301 59.27C56.1995 59.7394 56.8362 60.0031 57.5001 60.0031C58.164 60.0031 58.8006 59.7394 59.2701 59.27C59.7395 58.8005 60.0032 58.1638 60.0032 57.5C60.0032 56.8361 59.7395 56.1994 59.2701 55.73L24.2701 20.73C24.0378 20.4971 23.762 20.3124 23.4582 20.1864C23.1545 20.0604 22.8289 19.9955 22.5001 19.9955C22.1712 19.9955 21.8456 20.0604 21.5419 20.1864C21.2382 20.3124 20.9623 20.4971 20.7301 20.73V20.73Z" fill="black"/>
</svg>
