<svg width="169" height="30" viewBox="0 0 169 30" fill="none" xmlns="http://www.w3.org/2000/svg">
<path d="M16.2991 29.56C21.4591 29.56 25.6191 27.68 28.3391 24.28L23.2991 19.72C21.5391 21.84 19.3791 23 16.6991 23C12.0991 23 8.89906 19.8 8.89906 15C8.89906 10.2 12.0991 7 16.6991 7C19.3791 7 21.5391 8.16 23.2991 10.28L28.3391 5.72C25.6191 2.32 21.4591 0.439998 16.2991 0.439998C7.41906 0.439998 0.899063 6.48 0.899063 15C0.899063 23.52 7.41906 29.56 16.2991 29.56ZM45.4044 29.56C54.3644 29.56 60.9644 23.4 60.9644 15C60.9644 6.6 54.3644 0.439998 45.4044 0.439998C36.4444 0.439998 29.8444 6.6 29.8444 15C29.8444 23.4 36.4444 29.56 45.4044 29.56ZM45.4044 23C41.1644 23 37.8444 19.84 37.8444 15C37.8444 10.16 41.1644 7 45.4044 7C49.6444 7 52.9644 10.16 52.9644 15C52.9644 19.84 49.6444 23 45.4044 23ZM74.9525 29.56C83.2725 29.56 87.3525 25.4 87.3525 20.52C87.3525 10.2 71.4725 13.4 71.4725 9.12C71.4725 7.72 72.6725 6.6 75.9925 6.6C78.4325 6.6 81.0725 7.32 83.7525 8.76L86.1925 2.88C83.4325 1.28 79.6725 0.439998 76.0325 0.439998C67.7125 0.439998 63.6325 4.52 63.6325 9.52C63.6325 19.92 79.5525 16.68 79.5525 21.12C79.5525 22.48 78.2725 23.4 74.9925 23.4C71.7525 23.4 68.2325 22.28 65.7525 20.64L63.1525 26.48C65.7925 28.32 70.3525 29.56 74.9525 29.56ZM123.571 29L123.491 0.999998H116.971L107.371 17.16L97.5309 0.999998H91.0109V29H98.3309V14.56L105.491 26.24H109.011L116.211 14.16L116.291 29H123.571ZM129.175 29H137.095V0.999998H129.175V29ZM156.69 29.56C161.85 29.56 166.01 27.68 168.73 24.28L163.69 19.72C161.93 21.84 159.77 23 157.09 23C152.49 23 149.29 19.8 149.29 15C149.29 10.2 152.49 7 157.09 7C159.77 7 161.93 8.16 163.69 10.28L168.73 5.72C166.01 2.32 161.85 0.439998 156.69 0.439998C147.81 0.439998 141.29 6.48 141.29 15C141.29 23.52 147.81 29.56 156.69 29.56Z" fill="#4528BA"/>
</svg>
